<svg width="425" height="569" viewBox="0 0 425 569" fill="none" xmlns="http://www.w3.org/2000/svg">
<path d="M7.20488 215.482L407.36 2.39374C415.353 -1.86267 425 3.9299 425 12.9856V28.0305C425 32.3654 422.662 36.3634 418.884 38.4889L59.6642 240.591C54.7811 243.338 52.4491 249.099 54.046 254.47L75.6078 326.981C76.4645 329.862 78.3712 332.316 80.9507 333.859L419.159 536.131C422.782 538.298 425 542.208 425 546.43V556.096C425 565.36 414.948 571.13 406.949 566.458L33.8436 348.574C31.0229 346.927 28.9956 344.201 28.2297 341.025L1.1798 228.888C-0.103412 223.568 2.37479 218.054 7.20488 215.482Z" fill="url(#paint0_linear_105_122)"/>
<defs>
<linearGradient id="paint0_linear_105_122" x1="768.256" y1="636.698" x2="526.3" y2="-160.354" gradientUnits="userSpaceOnUse">
<stop stop-color="#D5A426"/>
<stop offset="1" stop-color="#D5A426" stop-opacity="0"/>
</linearGradient>
</defs>
</svg>
