<svg width="1002" height="1043" viewBox="0 0 1002 1043" fill="none" xmlns="http://www.w3.org/2000/svg">
<path d="M13.4751 212.936L13.174 213.393L13.3967 213.893L12.9398 213.592L12.4399 213.814L12.741 213.358L12.5183 212.858L12.9752 213.159L13.4751 212.936Z" fill="white"/>
<path d="M143.478 251.928L143.177 252.385L143.4 252.885L142.943 252.584L142.443 252.806L142.744 252.349L142.521 251.85L142.978 252.151L143.478 251.928Z" fill="white"/>
<path d="M64.0132 296.754L63.7121 297.211L63.9348 297.711L63.4778 297.41L62.978 297.633L63.2791 297.176L63.0564 296.676L63.5133 296.977L64.0132 296.754Z" fill="white"/>
<path d="M76.2385 225.44L75.9374 225.897L76.1601 226.396L75.7032 226.095L75.2033 226.318L75.5044 225.861L75.2817 225.361L75.7387 225.662L76.2385 225.44Z" fill="white"/>
<path d="M38.8832 242.419L38.5821 242.876L38.8048 243.376L38.3478 243.075L37.848 243.298L38.1491 242.841L37.9264 242.341L38.3833 242.642L38.8832 242.419Z" fill="white"/>
<path d="M275.241 285.208L274.94 285.665L275.163 286.165L274.706 285.864L274.206 286.087L274.507 285.63L274.284 285.13L274.741 285.431L275.241 285.208Z" fill="white"/>
<path d="M156.383 214.572L156.082 215.029L156.304 215.529L155.847 215.228L155.348 215.451L155.649 214.994L155.426 214.494L155.883 214.795L156.383 214.572Z" fill="white"/>
<path d="M444.359 253.965L444.058 254.422L444.281 254.922L443.824 254.621L443.324 254.844L443.625 254.387L443.402 253.887L443.859 254.188L444.359 253.965Z" fill="white"/>
<path d="M286.787 365.353L286.486 365.809L286.709 366.309L286.252 366.008L285.752 366.231L286.053 365.774L285.83 365.274L286.287 365.575L286.787 365.353Z" fill="white"/>
<path d="M155.704 311.697L155.403 312.153L155.625 312.653L155.168 312.352L154.668 312.575L154.97 312.118L154.747 311.618L155.204 311.919L155.704 311.697Z" fill="white"/>
<path d="M150.27 416.971L149.969 417.428L150.192 417.928L149.735 417.627L149.235 417.849L149.536 417.392L149.313 416.892L149.77 417.194L150.27 416.971Z" fill="white"/>
<path d="M556.425 407.462L556.124 407.919L556.347 408.419L555.89 408.118L555.39 408.341L555.691 407.884L555.468 407.384L555.925 407.685L556.425 407.462Z" fill="white"/>
<path d="M687.509 273.662L687.208 274.119L687.43 274.619L686.973 274.318L686.474 274.54L686.775 274.083L686.552 273.584L687.009 273.885L687.509 273.662Z" fill="white"/>
<path d="M874.286 393.199L873.985 393.656L874.208 394.156L873.751 393.855L873.251 394.078L873.552 393.621L873.329 393.121L873.786 393.422L874.286 393.199Z" fill="white"/>
<path d="M788.708 606.465L788.407 606.922L788.63 607.421L788.173 607.12L787.673 607.343L787.974 606.886L787.751 606.386L788.208 606.687L788.708 606.465Z" fill="white"/>
<path d="M876.323 742.303L876.022 742.759L876.245 743.259L875.788 742.958L875.288 743.181L875.589 742.724L875.367 742.224L875.824 742.525L876.323 742.303Z" fill="white"/>
<path d="M666.454 766.074L666.153 766.531L666.375 767.031L665.919 766.73L665.419 766.953L665.72 766.496L665.497 765.996L665.954 766.297L666.454 766.074Z" fill="white"/>
<path d="M424.663 740.265L424.362 740.722L424.584 741.222L424.127 740.921L423.627 741.143L423.928 740.686L423.706 740.187L424.163 740.488L424.663 740.265Z" fill="white"/>
<path d="M544.2 482.852L543.899 483.309L544.121 483.809L543.664 483.508L543.165 483.731L543.466 483.274L543.243 482.774L543.7 483.075L544.2 482.852Z" fill="white"/>
<path d="M359.46 429.196L359.159 429.653L359.382 430.153L358.925 429.852L358.425 430.075L358.726 429.618L358.504 429.118L358.961 429.419L359.46 429.196Z" fill="white"/>
<path d="M217.51 685.93L217.209 686.387L217.432 686.887L216.975 686.586L216.475 686.808L216.776 686.351L216.553 685.851L217.01 686.153L217.51 685.93Z" fill="white"/>
<path d="M52.4669 608.502L52.1658 608.959L52.3885 609.459L51.9316 609.158L51.4317 609.381L51.7328 608.924L51.5101 608.424L51.9671 608.725L52.4669 608.502Z" fill="white"/>
<path d="M54.5045 372.824L54.2034 373.281L54.4261 373.78L53.9692 373.479L53.4693 373.702L53.7704 373.245L53.5477 372.745L54.0047 373.046L54.5045 372.824Z" fill="white"/>
<path d="M273.204 395.237L272.902 395.694L273.125 396.194L272.668 395.893L272.168 396.115L272.469 395.658L272.247 395.158L272.704 395.46L273.204 395.237Z" fill="white"/>
<path d="M658.304 397.274L658.003 397.731L658.225 398.231L657.768 397.93L657.269 398.153L657.57 397.696L657.347 397.196L657.804 397.497L658.304 397.274Z" fill="white"/>
<path d="M584.272 556.884L583.971 557.341L584.194 557.841L583.737 557.54L583.237 557.762L583.538 557.305L583.315 556.805L583.772 557.107L584.272 556.884Z" fill="white"/>
<path d="M493.94 640.424L493.639 640.881L493.862 641.381L493.405 641.08L492.905 641.303L493.206 640.846L492.983 640.346L493.44 640.647L493.94 640.424Z" fill="white"/>
<path d="M368.969 451.61L368.668 452.066L368.891 452.566L368.434 452.265L367.934 452.488L368.235 452.031L368.012 451.531L368.469 451.832L368.969 451.61Z" fill="white"/>
<path d="M516.353 328.676L516.052 329.133L516.275 329.633L515.818 329.332L515.318 329.555L515.619 329.098L515.396 328.598L515.853 328.899L516.353 328.676Z" fill="white"/>
<path d="M78.2761 678.459L77.975 678.916L78.1977 679.416L77.7408 679.114L77.2409 679.337L77.542 678.88L77.3193 678.38L77.7763 678.681L78.2761 678.459Z" fill="white"/>
<path d="M61.9756 473.344L61.6745 473.801L61.8972 474.3L61.4402 473.999L60.9404 474.222L61.2415 473.765L61.0188 473.265L61.4757 473.566L61.9756 473.344Z" fill="white"/>
<path d="M436.209 465.873L435.908 466.329L436.13 466.829L435.674 466.528L435.174 466.751L435.475 466.294L435.252 465.794L435.709 466.095L436.209 465.873Z" fill="white"/>
<path d="M586.31 754.528L586.008 754.985L586.231 755.485L585.774 755.184L585.274 755.406L585.575 754.949L585.353 754.45L585.81 754.751L586.31 754.528Z" fill="white"/>
<path d="M329.576 814.297L329.275 814.754L329.498 815.253L329.041 814.952L328.541 815.175L328.842 814.718L328.619 814.218L329.076 814.519L329.576 814.297Z" fill="white"/>
<path d="M327.539 563.676L327.237 564.133L327.46 564.633L327.003 564.331L326.503 564.554L326.804 564.097L326.582 563.597L327.039 563.898L327.539 563.676Z" fill="white"/>
<path d="M854.589 256.003L854.288 256.46L854.511 256.96L854.054 256.659L853.554 256.881L853.855 256.424L853.633 255.925L854.089 256.226L854.589 256.003Z" fill="white"/>
<path d="M912.321 227.477L912.019 227.934L912.242 228.434L911.785 228.133L911.285 228.356L911.586 227.899L911.364 227.399L911.821 227.7L912.321 227.477Z" fill="white"/>
<path d="M919.792 764.037L919.49 764.493L919.713 764.993L919.256 764.692L918.756 764.915L919.057 764.458L918.835 763.958L919.292 764.259L919.792 764.037Z" fill="white"/>
<path d="M779.879 846.218L779.577 846.675L779.8 847.175L779.343 846.874L778.843 847.097L779.144 846.64L778.922 846.14L779.379 846.441L779.879 846.218Z" fill="white"/>
<path d="M688.188 553.488L687.887 553.945L688.109 554.445L687.653 554.144L687.153 554.366L687.454 553.909L687.231 553.409L687.688 553.711L688.188 553.488Z" fill="white"/>
<path d="M399.972 610.379L399.37 611.293L399.815 612.293L398.901 611.691L397.901 612.137L398.503 611.222L398.058 610.222L398.972 610.824L399.972 610.379Z" fill="white"/>
<path d="M231.89 494.917L231.287 495.831L231.733 496.831L230.819 496.229L229.818 496.674L230.421 495.76L229.975 494.76L230.89 495.362L231.89 494.917Z" fill="white"/>
<path d="M638.045 299.31L637.442 300.224L637.888 301.225L636.974 300.622L635.973 301.068L636.576 300.153L636.13 299.153L637.045 299.756L638.045 299.31Z" fill="white"/>
<path d="M479.794 213.732L479.191 214.647L479.637 215.647L478.723 215.044L477.722 215.49L478.325 214.576L477.879 213.575L478.794 214.178L479.794 213.732Z" fill="white"/>
<path d="M331.731 215.77L331.128 216.684L331.574 217.684L330.659 217.082L329.659 217.528L330.262 216.613L329.816 215.613L330.73 216.216L331.731 215.77Z" fill="white"/>
<path d="M758.261 194.036L757.659 194.95L758.105 195.95L757.19 195.348L756.19 195.794L756.792 194.879L756.347 193.879L757.261 194.481L758.261 194.036Z" fill="white"/>
<path d="M621.065 612.416L620.463 613.331L620.908 614.331L619.994 613.728L618.994 614.174L619.596 613.26L619.151 612.259L620.065 612.862L621.065 612.416Z" fill="white"/>
<path d="M146.991 596.116L146.389 597.03L146.834 598.03L145.92 597.428L144.92 597.874L145.522 596.959L145.077 595.959L145.991 596.561L146.991 596.116Z" fill="white"/>
<path d="M124.578 810.74L123.975 811.654L124.421 812.654L123.507 812.052L122.506 812.497L123.109 811.583L122.663 810.583L123.578 811.185L124.578 810.74Z" fill="white"/>
<path d="M49.8672 556.044L49.2647 556.958L49.7103 557.958L48.7959 557.356L47.7957 557.801L48.3982 556.887L47.9525 555.887L48.8669 556.489L49.8672 556.044Z" fill="white"/>
<path d="M42.3961 768.63L41.7936 769.544L42.2392 770.544L41.3249 769.942L40.3246 770.388L40.9271 769.473L40.4815 768.473L41.3958 769.075L42.3961 768.63Z" fill="white"/>
<path d="M16.5869 397.793L15.9844 398.707L16.43 399.707L15.5157 399.105L14.5154 399.55L15.1179 398.636L14.6723 397.636L15.5866 398.238L16.5869 397.793Z" fill="white"/>
<path d="M376.125 1.03836L375.589 1.14857L375.393 1.65951L375.283 1.12348L374.772 0.927502L375.308 0.817296L375.504 0.306349L375.615 0.84238L376.125 1.03836Z" fill="white"/>
<path d="M440.48 120.536L439.944 120.646L439.748 121.157L439.638 120.621L439.127 120.425L439.663 120.315L439.859 119.804L439.969 120.34L440.48 120.536Z" fill="white"/>
<path d="M352.593 96.0429L352.057 96.1531L351.861 96.664L351.751 96.128L351.24 95.932L351.776 95.8218L351.972 95.3109L352.082 95.8469L352.593 96.0429Z" fill="white"/>
<path d="M411.665 54.2603L411.129 54.3705L410.933 54.8814L410.822 54.3454L410.311 54.1494L410.848 54.0392L411.044 53.5283L411.154 54.0643L411.665 54.2603Z" fill="white"/>
<path d="M373.244 39.8525L372.708 39.9627L372.512 40.4737L372.402 39.9376L371.891 39.7416L372.427 39.6314L372.623 39.1205L372.733 39.6565L373.244 39.8525Z" fill="white"/>
<path d="M510.118 237.239L509.582 237.349L509.386 237.86L509.276 237.324L508.765 237.128L509.301 237.018L509.497 236.507L509.607 237.043L510.118 237.239Z" fill="white"/>
<path d="M476.019 103.247L475.483 103.357L475.287 103.868L475.177 103.332L474.666 103.136L475.202 103.026L475.398 102.515L475.508 103.051L476.019 103.247Z" fill="white"/>
<path d="M651.794 334.732L651.258 334.842L651.062 335.353L650.952 334.817L650.441 334.621L650.977 334.511L651.173 334L651.283 334.536L651.794 334.732Z" fill="white"/>
<path d="M461.612 302.074L461.076 302.184L460.88 302.695L460.769 302.159L460.258 301.963L460.794 301.853L460.99 301.342L461.101 301.878L461.612 302.074Z" fill="white"/>
<path d="M406.862 171.443L406.326 171.554L406.13 172.065L406.02 171.529L405.509 171.333L406.045 171.222L406.241 170.711L406.351 171.248L406.862 171.443Z" fill="white"/>
<path d="M328.58 242.042L328.044 242.152L327.848 242.663L327.738 242.127L327.227 241.931L327.763 241.821L327.959 241.31L328.069 241.846L328.58 242.042Z" fill="white"/>
<path d="M622.499 522.513L621.962 522.623L621.767 523.134L621.656 522.598L621.145 522.402L621.681 522.292L621.877 521.781L621.988 522.317L622.499 522.513Z" fill="white"/>
<path d="M809.8 520.592L809.264 520.702L809.068 521.213L808.957 520.677L808.446 520.481L808.982 520.371L809.178 519.86L809.289 520.396L809.8 520.592Z" fill="white"/>
<path d="M857.345 737.189L856.809 737.299L856.613 737.81L856.503 737.274L855.992 737.078L856.528 736.968L856.724 736.457L856.834 736.993L857.345 737.189Z" fill="white"/>
<path d="M646.031 827.478L645.495 827.588L645.299 828.099L645.189 827.563L644.678 827.367L645.214 827.257L645.41 826.746L645.52 827.282L646.031 827.478Z" fill="white"/>
<path d="M611.933 985.483L611.397 985.593L611.201 986.104L611.091 985.568L610.58 985.372L611.116 985.262L611.312 984.751L611.422 985.287L611.933 985.483Z" fill="white"/>
<path d="M446.724 853.892L446.188 854.002L445.992 854.513L445.881 853.977L445.37 853.781L445.906 853.671L446.102 853.16L446.213 853.696L446.724 853.892Z" fill="white"/>
<path d="M294.001 664.67L293.465 664.78L293.269 665.291L293.159 664.755L292.648 664.559L293.184 664.449L293.38 663.938L293.49 664.474L294.001 664.67Z" fill="white"/>
<path d="M560.545 567.177L560.009 567.287L559.813 567.798L559.703 567.262L559.192 567.066L559.728 566.956L559.924 566.445L560.034 566.981L560.545 567.177Z" fill="white"/>
<path d="M467.855 398.606L467.319 398.716L467.123 399.227L467.013 398.691L466.502 398.495L467.038 398.385L467.234 397.874L467.344 398.41L467.855 398.606Z" fill="white"/>
<path d="M185.943 479.77L185.407 479.88L185.211 480.391L185.101 479.855L184.59 479.659L185.126 479.549L185.322 479.038L185.432 479.574L185.943 479.77Z" fill="white"/>
<path d="M123.989 308.317L123.453 308.428L123.257 308.939L123.147 308.403L122.636 308.207L123.172 308.096L123.368 307.585L123.478 308.121L123.989 308.317Z" fill="white"/>
<path d="M292.08 143.108L291.544 143.218L291.348 143.729L291.238 143.193L290.727 142.997L291.263 142.887L291.459 142.376L291.569 142.912L292.08 143.108Z" fill="white"/>
<path d="M430.875 313.6L430.339 313.71L430.143 314.221L430.033 313.685L429.522 313.489L430.058 313.379L430.254 312.868L430.364 313.404L430.875 313.6Z" fill="white"/>
<path d="M701.741 587.348L701.205 587.458L701.009 587.969L700.899 587.433L700.388 587.237L700.924 587.127L701.12 586.616L701.23 587.152L701.741 587.348Z" fill="white"/>
<path d="M536.532 647.861L535.996 647.971L535.8 648.482L535.69 647.946L535.179 647.75L535.715 647.64L535.911 647.129L536.021 647.665L536.532 647.861Z" fill="white"/>
<path d="M413.586 643.058L413.05 643.168L412.854 643.679L412.743 643.143L412.233 642.947L412.769 642.837L412.965 642.326L413.075 642.862L413.586 643.058Z" fill="white"/>
<path d="M458.73 421.178L458.194 421.289L457.998 421.8L457.888 421.263L457.377 421.067L457.913 420.957L458.109 420.446L458.219 420.982L458.73 421.178Z" fill="white"/>
<path d="M649.873 438.468L649.337 438.578L649.141 439.089L649.031 438.553L648.52 438.357L649.056 438.247L649.252 437.736L649.362 438.272L649.873 438.468Z" fill="white"/>
<path d="M92.7725 376.034L92.2364 376.144L92.0404 376.655L91.9302 376.119L91.4193 375.923L91.9553 375.813L92.1513 375.302L92.2615 375.838L92.7725 376.034Z" fill="white"/>
<path d="M226.285 219.469L225.749 219.58L225.553 220.091L225.442 219.555L224.931 219.359L225.467 219.248L225.663 218.737L225.774 219.273L226.285 219.469Z" fill="white"/>
<path d="M496.19 478.809L495.654 478.92L495.458 479.431L495.348 478.895L494.837 478.699L495.373 478.588L495.569 478.077L495.679 478.614L496.19 478.809Z" fill="white"/>
<path d="M398.217 789.057L397.681 789.167L397.485 789.678L397.375 789.142L396.864 788.946L397.4 788.836L397.596 788.325L397.706 788.861L398.217 789.057Z" fill="white"/>
<path d="M174.416 649.782L173.88 649.892L173.684 650.403L173.574 649.867L173.063 649.671L173.599 649.561L173.795 649.05L173.906 649.586L174.416 649.782Z" fill="white"/>
<path d="M350.192 471.125L349.655 471.236L349.46 471.746L349.349 471.21L348.838 471.014L349.374 470.904L349.57 470.393L349.681 470.929L350.192 471.125Z" fill="white"/>
<path d="M940.43 626.249L939.894 626.359L939.698 626.87L939.588 626.334L939.077 626.138L939.613 626.028L939.809 625.517L939.919 626.053L940.43 626.249Z" fill="white"/>
<path d="M1001.42 646.9L1000.89 647.01L1000.69 647.521L1000.58 646.985L1000.07 646.789L1000.61 646.679L1000.8 646.168L1000.91 646.704L1001.42 646.9Z" fill="white"/>
<path d="M627.301 1031.59L626.765 1031.7L626.569 1032.21L626.459 1031.67L625.948 1031.48L626.484 1031.37L626.68 1030.86L626.79 1031.39L627.301 1031.59Z" fill="white"/>
<path d="M470.256 990.766L469.72 990.876L469.524 991.387L469.414 990.851L468.903 990.655L469.439 990.545L469.635 990.034L469.745 990.57L470.256 990.766Z" fill="white"/>
<path d="M612.413 718.939L611.877 719.049L611.681 719.56L611.571 719.024L611.06 718.828L611.596 718.718L611.792 718.207L611.902 718.743L612.413 718.939Z" fill="white"/>
<path d="M368.386 555.368L367.313 555.588L366.921 556.611L366.701 555.538L365.678 555.146L366.751 554.925L367.143 553.903L367.364 554.976L368.386 555.368Z" fill="white"/>
<path d="M331.178 354.871L330.105 355.092L329.713 356.114L329.492 355.042L328.47 354.65L329.543 354.429L329.935 353.407L330.155 354.479L331.178 354.871Z" fill="white"/>
<path d="M756.687 503.752L755.615 503.972L755.223 504.995L755.002 503.922L753.98 503.53L755.052 503.31L755.444 502.287L755.665 503.36L756.687 503.752Z" fill="white"/>
<path d="M705.3 331.339L704.227 331.559L703.835 332.582L703.614 331.509L702.592 331.117L703.665 330.896L704.057 329.874L704.277 330.947L705.3 331.339Z" fill="white"/>
<path d="M599.162 228.083L598.09 228.304L597.698 229.326L597.477 228.253L596.455 227.861L597.527 227.641L597.919 226.618L598.14 227.691L599.162 228.083Z" fill="white"/>
<path d="M916.133 514.318L915.061 514.538L914.669 515.56L914.448 514.488L913.426 514.096L914.498 513.875L914.891 512.853L915.111 513.925L916.133 514.318Z" fill="white"/>
<path d="M523.282 713.145L522.209 713.365L521.817 714.388L521.596 713.315L520.574 712.923L521.646 712.703L522.039 711.68L522.259 712.753L523.282 713.145Z" fill="white"/>
<path d="M199.587 366.398L198.514 366.618L198.122 367.641L197.901 366.568L196.879 366.176L197.952 365.955L198.344 364.933L198.564 366.006L199.587 366.398Z" fill="white"/>
<path d="M31.9762 502.311L30.9036 502.532L30.5115 503.554L30.291 502.481L29.2686 502.089L30.3412 501.869L30.7333 500.846L30.9538 501.919L31.9762 502.311Z" fill="white"/>
<path d="M159.245 269.385L158.172 269.606L157.78 270.628L157.56 269.556L156.537 269.163L157.61 268.943L158.002 267.921L158.223 268.993L159.245 269.385Z" fill="white"/>
<path d="M3.64092 414.424L2.56832 414.644L2.17616 415.667L1.95564 414.594L0.933231 414.202L2.00583 413.981L2.39799 412.959L2.61851 414.031L3.64092 414.424Z" fill="white"/>
<path d="M247.613 133.952L246.54 134.173L246.148 135.195L245.927 134.123L244.905 133.73L245.978 133.51L246.37 132.487L246.59 133.56L247.613 133.952Z" fill="white"/>
</svg>
